<?xml version="1.0" encoding="UTF-8"?>
<svg width="400px" height="320px" viewBox="0 0 400 320" version="1.1" xmlns="http://www.w3.org/2000/svg" xmlns:xlink="http://www.w3.org/1999/xlink">
    <!-- Generator: Sketch 60.1 (88133) - https://sketch.com -->
    <title>1-auto_record</title>
    <desc>Created with Sketch.</desc>
    <g id="页面-1" stroke="none" stroke-width="1" fill="none" fill-rule="evenodd">
        <g id="1-auto_record" fill-rule="nonzero">
            <ellipse id="椭圆形" fill="#F2F2F2" cx="118.991891" cy="244.935013" rx="58.7044534" ry="71.7156105"></ellipse>
            <rect id="矩形" fill="#2F2E41" x="9.8787085" y="316.715415" width="390.084842" height="1.10823864"></rect>
            <path d="M116.506069,245.390027 C116.506069,298.983844 90.4250972,317.699146 58.2550567,317.699146 C57.5060688,317.699146 56.7611296,317.689254 56.0202389,317.664524 C54.5303603,317.624957 53.0526275,317.545823 51.5951377,317.417229 C22.5587004,314.909656 -4.04858301e-06,295.229903 -4.04858301e-06,245.390027 C-4.04858301e-06,193.814138 53.9433158,128.730985 58.0121417,123.898836 C58.0142431,123.896015 58.0171301,123.894251 58.0202389,123.893891 C58.174085,123.705976 58.2550567,123.612004 58.2550567,123.612004 C58.2550567,123.612004 116.506069,191.791263 116.506069,245.390027 Z" id="路径" fill="#3F3D56"></path>
            <path d="M56.1295506,309.498832 L77.4372429,273.131598 L56.076919,313.490176 L56.0202591,317.664519 C54.5303806,317.624952 53.0526478,317.545818 51.5951579,317.417224 L53.8907045,263.798677 L53.8745101,263.383221 L53.914996,263.304087 L54.1295709,258.239481 L32.7166356,217.777039 L54.1943684,254.441026 L54.247,255.514287 L55.9838421,215.002386 L37.6518583,173.194658 L56.2065142,207.88523 L58.0121822,123.898832 L58.0202794,123.611994 L58.0202794,123.893881 L57.7206842,190.124483 L75.9676478,163.866678 L57.6437611,195.827111 L57.162004,232.100372 L74.2024899,197.291099 L57.0891296,237.441949 L56.8219231,257.6064 L81.5587652,209.151377 L56.7288259,264.644422 L56.1295506,309.498832 Z" id="路径" fill="#F2F2F2"></path>
            <path d="M325.267202,99.7727258 L317.170036,89.386327 C317.170036,89.386327 308.263154,73.0648433 301.785421,77.516157 C295.307688,81.9674708 311.097162,92.3538696 311.097162,92.3538696 L319.194328,108.675353 L325.267202,99.7727258 Z" id="路径" fill="#A0616A"></path>
            <path d="M350.773275,301.071026 C350.773275,301.071026 356.84615,315.414148 352.392709,316.403329 C347.939267,317.392509 326.076919,318.876281 325.672061,317.392509 C325.267202,315.908738 322.028336,310.962834 324.457486,308.984472 C326.886636,307.006111 336.603235,305.522339 336.603235,305.522339 L339.842101,301.565616 L350.773275,301.071026 Z" id="路径" fill="#2F2E41"></path>
            <path d="M354.012142,161.101938 C354.012142,161.101938 366.967607,180.885554 356.441291,201.163761 L354.012142,235.2905 C354.012142,235.2905 358.465583,282.27659 352.797567,298.103483 L351.98785,303.543978 L337.81781,303.543978 L341.461534,261.998383 C341.461534,261.998383 341.056676,257.052479 339.842101,256.063298 C338.627526,255.074117 318.78947,201.658352 318.78947,201.658352 C318.78947,201.658352 322.028336,194.239496 320.813761,192.755724 C319.599186,191.271953 322.028336,161.596528 323.242911,160.607347 C324.457486,159.618166 354.012142,161.101938 354.012142,161.101938 Z" id="路径" fill="#2F2E41"></path>
            <polygon id="路径" fill="#A0616A" points="330.935223 296.619722 329.315789 307.995301 345.105263 307.006121 343.080972 294.64136"></polygon>
            <ellipse id="椭圆形" fill="#A0616A" cx="333.769219" cy="79.9891091" rx="12.145749" ry="14.8377125"></ellipse>
            <path d="M344.700401,82.4620612 L345.914976,100.267316 L332.95951,107.686172 C332.95951,107.686172 335.186231,91.1173935 333.566798,86.6660798 L344.700401,82.4620612 Z" id="路径" fill="#A0616A"></path>
            <path d="M331.340077,106.696992 L332.554652,100.761907 L349.153842,93.3430504 C349.153842,93.3430504 350.773275,93.3430504 350.368417,96.8051833 C349.963559,100.267316 349.963559,99.7727258 349.963559,99.7727258 C349.963559,99.7727258 355.631575,102.740268 356.036433,107.686172 C356.441291,112.632077 362.919024,114.115848 362.514166,121.534704 C362.109308,128.95356 360.085016,132.910284 360.085016,132.910284 C360.085016,132.910284 362.109308,138.845369 358.870441,142.307502 C358.870441,142.307502 355.631575,149.231768 357.251008,154.177672 C358.870441,159.123576 360.894733,167.531613 356.441291,166.047842 C351.98785,164.56407 321.218619,162.091118 321.218619,162.091118 C321.218619,162.091118 316.765178,141.812911 321.623478,134.394055 C321.623478,134.394055 321.623478,129.942741 325.267202,121.040114 C328.910927,112.137486 331.340077,106.696992 331.340077,106.696992 Z" id="路径" fill="#575A89"></path>
            <path d="M352.797567,162.585709 C352.797567,162.585709 347.534409,189.788182 341.056676,192.755724 C341.056676,192.755724 339.842101,212.539341 332.95951,211.55016 C326.076919,210.560979 332.95951,192.755724 332.95951,192.755724 L340.651818,158.628985 L352.797567,162.585709 Z" id="路径" fill="#A0616A"></path>
            <path d="M332.149794,108.180763 C332.149794,108.180763 326.076919,96.3105929 324.457486,98.2889546 C322.838053,100.267316 314.740887,106.202401 315.145745,110.159125 C315.550603,114.115848 319.194328,114.115848 319.194328,114.115848 L327.696352,122.029295 L332.149794,108.180763 Z" id="路径" fill="#575A89"></path>
            <path d="M323.647769,196.712448 L318.78947,200.978785 L315.550603,243.203947 C315.550603,243.203947 327.291494,300.576435 330.53036,301.071026 C333.769227,301.565616 347.129551,301.565616 346.724692,300.081845 C346.319834,298.598074 344.295543,292.662989 344.295543,291.179217 C344.295543,289.695446 340.073085,277.829431 340.073085,277.829431 L334.578943,250.128213 L335.793518,228.366234 L323.647769,196.712448 Z" id="路径" fill="#2F2E41"></path>
            <path d="M329.720644,304.038568 C329.720644,304.038568 346.724692,297.608893 347.534409,299.092664 C348.344126,300.576435 353.745053,315.53098 346.186287,317.20363 C338.627522,318.876281 311.50202,321.843823 311.50202,317.392509 C311.50202,312.941196 312.311737,309.973653 314.740887,309.973653 C317.170036,309.973653 328.101211,303.543978 328.910927,302.060206 C329.720644,300.576435 329.720644,304.038568 329.720644,304.038568 Z" id="路径" fill="#2F2E41"></path>
            <path d="M345.285931,80.9643969 C345.519024,80.3973641 345.426713,79.7114595 345.057282,79.265444 C344.687851,78.8194285 344.125338,78.7147619 343.663964,79.0061898 L343.642579,79.0212204 C342.921257,79.5565788 342.532191,80.5672777 342.654725,81.5874275 C341.194737,79.8078121 342.270725,76.2388971 340.693247,74.6157947 C339.963093,73.8645119 338.777862,73.6992396 338.402753,72.6268291 C338.184381,72.0025026 338.33285,71.2624816 338.14036,70.6255728 C337.85453,69.6798368 336.941397,69.2849113 336.125186,69.1362176 C333.558409,68.6686121 330.962571,69.4643141 328.44917,70.2538287 C327.52498,70.5441533 326.553194,70.8667351 325.880028,71.6929879 C325.171004,72.5632445 324.924296,73.8277342 324.489534,74.9347611 C324.054773,76.0417879 321.203324,75.9417471 320.206462,75.7850906 C319.859903,74.5825039 322.419368,74.4918355 322.6283,73.2427128 C323.199368,69.8285552 321.21068,66.1979994 322.186283,62.923425 C322.774138,60.9502665 324.309842,59.6441076 325.855951,58.7267165 C330.151047,56.2043443 335.054092,55.6932211 339.636923,57.2901045 C340.103407,57.4158979 340.539301,57.6733755 340.909704,58.0419215 C341.498097,58.7129669 341.607178,59.7903876 341.999036,60.6493478 C342.891879,62.6064668 345.009385,63.0716093 346.437215,64.4778287 C348.599656,66.6075351 348.843449,70.4530151 348.913466,73.8452179 C348.948729,75.5535332 348.973611,77.3286182 348.400846,78.8876859 C347.828081,80.4467536 346.470785,81.7171042 345.097729,81.3905509 C345.162749,81.2615567 345.225097,81.1173539 345.285931,80.9643969 Z" id="路径" fill="#2F2E41"></path>
            <path d="M343.173567,113.000383 C346.396717,110.267678 350.723394,110.536287 353.70317,113.654083 C356.493425,116.550731 359.495073,120.700904 359.275296,124.996837 C358.870437,132.910284 356.441287,165.553251 353.202421,166.047842 C349.963555,166.542432 338.222664,162.585709 338.222664,160.112757 C338.222664,157.639805 341.056672,154.672262 341.056672,154.672262 L337.61568,129.450377 C336.730601,123.213181 338.813327,116.901679 342.991915,113.158217 C343.052031,113.105352 343.112582,113.052741 343.173567,113.000383 Z" id="路径" fill="#575A89"></path>
            <path d="M298.035502,1.55275048e-05 L200.620324,1.55275048e-05 C190.938095,1.55275048e-05 182.548233,8.19643469 180.41881,19.7350083 L131.196846,286.451447 C130.110069,292.340276 131.208951,298.514812 134.199086,303.320803 C137.18922,308.126794 141.764962,311.072983 146.700401,311.37004 L246.843879,317.397678 C257.936498,318.065365 267.713373,308.577399 269.690219,295.226451 L297.611919,106.654951 L299.68917,107.380021 L305.031733,71.6386621 L302.89349,70.9856247 L310.687417,18.3485527 C311.363302,13.7839013 310.338624,9.08875354 307.892278,5.5410255 C305.445933,1.99329745 301.832509,-0.0378015457 298.035502,1.55275048e-05 Z" id="路径" fill="#3F3D56"></path>
            <path d="M213.444879,5.75025162 L202.073591,5.75025162 C195.345292,5.75025162 189.525579,11.4759084 188.091328,19.5065372 L140.845024,284.046887 C140.294574,287.128949 140.871166,290.351036 142.424159,292.871342 C143.977152,295.391648 146.352268,296.959802 148.928984,297.166106 L248.748486,305.158163 C254.578667,305.624958 259.766485,300.669946 260.802227,293.645339 L301.11781,20.2171104 C301.64605,16.6344712 300.846849,12.9501017 298.935643,10.1571758 C297.024437,7.36424988 294.197951,5.75025162 291.218105,5.75025162 L280.430656,5.75025162 C278.28411,5.75025162 276.404633,7.50988937 275.846587,10.0420253 L275.846587,10.0420253 C275.353931,12.277454 273.694684,13.8308999 271.799664,13.8308995 L220.58785,13.8308995 C216.84437,13.8308999 213.732006,10.3099602 213.444895,5.75025162 L213.444879,5.75025162 Z" id="路径" fill="#FFD3A6"></path>
            <rect id="矩形" fill="#2F2E41" x="181.643891" y="74.1250226" width="103.289603" height="1"></rect>
            <rect id="矩形" fill="#2F2E41" x="177.573364" y="94.3266572" width="104.307235" height="1"></rect>
            <polygon id="路径" fill="#2F2E41" points="278.410931 73.1405255 276.063563 69.3178362 276.47085 68.9454096 278.49919 72.248779 286.315385 64.4367233 286.637247 64.9179598"></polygon>
            <polygon id="路径" fill="#2F2E41" points="264.927126 163.271221 262.580162 159.448532 262.987045 159.075611 265.015789 162.379474 272.831579 154.566924 273.153846 155.048655"></polygon>
            <polygon id="矩形" fill="#2F2E41" transform="translate(220.186682, 165.032384) rotate(-88.786860) translate(-220.186682, -165.032384) " points="220.129525 110.954408 220.751204 110.952021 220.243839 219.11036 219.62216 219.112747"></polygon>
            <polygon id="矩形" fill="#2F2E41" transform="translate(217.897001, 183.524647) rotate(-88.677010) translate(-217.897001, -183.524647) " points="217.868008 128.425445 218.489708 128.422842 217.925994 238.623848 217.304295 238.626452"></polygon>
            <path d="M230.363004,234.650342 C230.363004,250.956808 219.542286,264.175811 206.194255,264.175811 C192.846224,264.175811 182.025506,250.956808 182.025506,234.650342 C182.025506,234.280512 182.030599,233.913758 182.04332,233.547005 C182.535273,217.466923 193.476776,204.829279 206.646384,205.129995 C219.815992,205.430711 230.363004,218.559034 230.363004,234.650342 L230.363004,234.650342 Z" id="路径" fill="#000000" opacity="0.1"></path>
            <path d="M228.073332,246.149737 C228.073332,246.519562 228.068239,246.886316 228.055518,247.25307 C223.226392,259.749428 211.948944,266.483185 200.910975,263.461059 C189.873007,260.438933 182.026865,248.469258 182.025502,234.650342 C182.025502,234.280512 182.030595,233.913758 182.043316,233.547005 C186.872453,221.05067 198.149891,214.316934 209.187846,217.339058 C220.225802,220.361183 228.071939,232.330837 228.073332,246.149737 L228.073332,246.149737 Z" id="路径" fill="#000000" opacity="0.1"></path>
            <polygon id="路径" fill="#F2F2F2" points="201.302429 242.773663 192.710526 228.778733 194.745749 226.913632 201.745344 238.31493 229.303239 210.770696 230.91417 213.176383"></polygon>
        </g>
    </g>
</svg>