<?xml version="1.0" encoding="UTF-8"?>
<svg width="400px" height="320px" viewBox="0 0 400 320" version="1.1" xmlns="http://www.w3.org/2000/svg" xmlns:xlink="http://www.w3.org/1999/xlink">
    <!-- Generator: Sketch 60.1 (88133) - https://sketch.com -->
    <title>2-chart</title>
    <desc>Created with Sketch.</desc>
    <g id="页面-1" stroke="none" stroke-width="1" fill="none" fill-rule="evenodd">
        <g id="2-chart" fill-rule="nonzero">
            <path d="M71.1441654,317.079793 C74.9586129,313.040643 77.2755716,306.659981 76.6679491,300.448356 C76.0603266,294.236731 72.2969247,288.526342 67.4152153,287.207277 C62.5335058,285.888213 56.9687211,289.539599 55.4859894,295.515514 C54.6699724,283.994185 53.7296585,271.990124 48.8416204,262.178637 C44.4156225,253.294575 36.7497137,246.937706 28.4416204,245.800447 C20.133527,244.663187 11.3861294,248.958453 6.20466596,257.176005 C1.02320255,265.393557 -0.245463415,277.340194 3.38349947,286.774629 C6.05683139,293.724656 10.9820488,298.896946 16.1424517,303.104877 C32.8175549,316.587637 52.8171658,322.070525 72.4615058,318.544728 L71.1441654,317.079793 Z" id="路径" fill="#F2F2F2"></path>
            <path d="M14.4203945,249.19654 C21.2756138,256.193751 27.5645583,264.019593 33.196263,272.560872 C38.828856,281.093382 43.7877459,290.290421 48.0032789,300.022804 C50.3595687,305.482228 52.4762803,311.098774 54.3439661,316.847373 C54.7247635,318.01676 53.2094846,318.525789 52.8329205,317.369409 C49.524793,307.234651 45.4320163,297.530582 40.6132768,288.396348 C35.8179378,279.295206 30.3294077,270.798451 24.2247932,263.025451 C20.7720053,258.631161 17.1290236,254.478104 13.3123436,250.585084 C12.5300318,249.786785 13.6445345,248.404811 14.4203945,249.196524 L14.4203945,249.19654 Z" id="路径" fill="#FFFFFF"></path>
            <path d="M298.771712,0 L92.1969502,0 C90.5578342,0.00227915255 89.2277031,1.66686201 89.2277031,3.72093023 L89.2277031,179.136213 C89.2277031,181.190281 90.5578342,182.854864 92.1969502,182.857143 L298.771712,182.857143 C300.410827,182.854861 301.740959,181.19028 301.740959,179.136213 L301.740959,3.72093023 C301.740959,1.66686201 300.410828,0.00227915255 298.771712,0 Z M300.892602,179.136213 C300.892602,180.603836 299.942853,181.79402 298.771712,181.79402 L92.1969502,181.79402 C91.0258085,181.79402 90.0760594,180.603836 90.0760594,179.136213 L90.0760594,3.72093023 C90.0760594,2.25330687 91.0258085,1.06312292 92.1969502,1.06312292 L298.771712,1.06312292 C299.942853,1.06312292 300.892602,2.25330687 300.892602,3.72093023 L300.892602,179.136213 Z" id="形状" fill="#3F3D56"></path>
            <rect id="矩形" fill="#3F3D56" x="89.6518812" y="14.9049728" width="211.664899" height="1.06312292"></rect>
            <ellipse id="椭圆形" fill="#3F3D56" cx="96.8629099" cy="7.97342193" rx="2.54506893" ry="3.18936877"></ellipse>
            <ellipse id="椭圆形" fill="#3F3D56" cx="104.179983" cy="7.97342193" rx="2.54506893" ry="3.18936877"></ellipse>
            <ellipse id="椭圆形" fill="#3F3D56" cx="111.497056" cy="7.97342193" rx="2.54506893" ry="3.18936877"></ellipse>
            <path d="M213.299813,39.6013289 L177.668848,39.6013289 C176.028978,39.6013289 174.699601,37.9354117 174.699601,35.8803987 C174.699601,33.8253856 176.028978,32.1594684 177.668848,32.1594684 L213.299813,32.1594684 C214.939683,32.1594684 216.26906,33.8253856 216.26906,35.8803987 C216.26906,37.9354117 214.939683,39.6013289 213.299813,39.6013289 Z" id="路径" fill="#CCCCCC"></path>
            <path d="M237.690057,57.6744186 L153.278604,57.6744186 C151.638735,57.6744186 150.309357,56.0085014 150.309357,53.9534884 C150.309357,51.8984753 151.638735,50.2325581 153.278604,50.2325581 L237.690057,50.2325581 C239.329927,50.2325581 240.659304,51.8984755 240.659304,53.9534884 C240.659304,56.0085013 239.329927,57.6744186 237.690057,57.6744186 L237.690057,57.6744186 Z" id="路径" fill="#CCCCCC"></path>
            <path d="M263.005497,168.744675 C254.071036,168.744675 246.828225,159.668301 246.828225,148.472027 C246.828225,137.275752 254.071036,128.199378 263.005497,128.199378 C271.939958,128.199378 279.18277,137.275752 279.18277,148.472027 C279.172699,159.66307 271.935784,168.732055 263.005497,168.744675 L263.005497,168.744675 Z M263.005497,129.597496 C256.913649,129.597496 251.421643,134.19613 249.090394,141.249061 C246.759145,148.301992 248.047752,156.420267 252.35534,161.818346 C256.662928,167.216425 263.141191,168.831249 268.769325,165.909827 C274.397458,162.988406 278.067097,156.106064 278.067097,148.472027 C278.057678,138.052802 271.319884,129.609296 263.005497,129.597496 L263.005497,129.597496 Z" id="形状" fill="#3F3D56"></path>
            <path d="M127.380344,114.449478 C120.837247,114.449478 114.938425,109.510209 112.43449,101.93484 C109.930554,94.3594702 111.314612,85.6398418 115.941279,79.8419039 C120.567946,74.0439659 127.52608,72.3095232 133.571113,75.4473437 C139.616146,78.5851642 143.557612,85.9773078 143.557612,94.1768292 C143.547541,105.36787 136.310628,114.436855 127.380344,114.449478 L127.380344,114.449478 Z M127.380344,75.302299 C121.288495,75.302299 115.796487,79.900929 113.465237,86.95386 C111.133987,94.0067911 112.422593,102.125067 116.73018,107.523147 C121.037768,112.921227 127.516032,114.536051 133.144166,111.614631 C138.7723,108.69321 142.441938,101.810867 142.441938,94.1768292 C142.43252,83.7576067 135.694729,75.3141014 127.380344,75.302299 L127.380344,75.302299 Z" id="形状" fill="#3F3D56"></path>
            <path d="M133.664238,104.923519 C132.782228,104.923787 132.066739,104.028708 132.065438,102.923413 L132.065438,91.5488372 C132.066403,90.4447582 132.780357,89.5500082 133.661396,89.5487309 L133.664238,89.5487309 C134.545276,89.5500082 135.25923,90.4447582 135.260195,91.5488372 L135.260195,102.923413 C135.25923,104.027492 134.545276,104.922242 133.664238,104.923519 L133.664238,104.923519 Z M129.497018,104.92362 C129.070315,104.92888 128.659521,104.720796 128.355643,104.345368 C128.051766,103.969939 127.879894,103.45816 127.878104,102.923413 L127.878104,96.7962206 C127.879084,95.6921907 128.593058,94.7975218 129.474057,94.7963588 L129.497018,94.7963588 C130.378018,94.7975218 131.091992,95.6921907 131.092971,96.7962206 L131.092971,102.923413 C131.092008,104.027491 130.378056,104.922242 129.497018,104.92362 L129.497018,104.92362 Z M125.289569,104.923519 C124.407559,104.92379 123.692069,104.028709 123.69077,102.923413 L123.69077,85.4302565 C123.691733,84.3261792 124.405686,83.4314298 125.286723,83.4301555 L125.289569,83.4301555 C126.170607,83.4314298 126.88456,84.3261792 126.885523,85.4302565 L126.885523,102.923413 C126.88456,104.027491 126.170607,104.922242 125.289569,104.923519 L125.289569,104.923519 Z M121.098112,104.92352 C120.67433,104.924071 120.267772,104.713384 119.968076,104.337909 C119.66838,103.962435 119.500155,103.453006 119.500492,102.92194 L119.502257,100.294559 C119.502636,99.1900341 120.217456,98.2950249 121.09885,98.2955003 C121.980245,98.295976 122.694449,99.1917563 122.69407,100.296282 L122.69407,102.923413 C122.693105,104.027492 121.979151,104.922242 121.098112,104.92352 Z" id="形状" fill="#FFD3A6"></path>
            <path d="M372.785748,318.569079 C366.242651,318.569079 360.343829,313.62981 357.839894,306.054441 C355.335958,298.479072 356.720016,289.759443 361.346683,283.961505 C365.97335,278.163567 372.931484,276.429125 378.976517,279.566945 C385.02155,282.704766 388.963016,290.096909 388.963016,298.296431 C388.952945,309.487472 381.716032,318.556456 372.785748,318.569079 Z M372.785748,279.4219 C366.693899,279.4219 361.201891,284.02053 358.870641,291.073461 C356.539391,298.126392 357.827997,306.244668 362.135584,311.642748 C366.443172,317.040828 372.921436,318.655653 378.54957,315.734232 C384.177704,312.812811 387.847343,305.930469 387.847343,298.296431 C387.837924,287.877208 381.100133,279.433703 372.785748,279.4219 Z" id="形状" fill="#3F3D56"></path>
            <path d="M377.245234,294.778089 L374.091296,300.821459 C374.344582,301.206876 374.482415,301.691105 374.480954,302.190395 C374.479458,303.389977 373.703034,304.361437 372.745784,304.361437 C371.788533,304.361437 371.01211,303.389977 371.010613,302.190395 C371.011465,302.05048 371.021494,301.910889 371.040598,301.773034 L368.959054,300.253831 C368.406979,300.923565 367.568385,301.056202 366.900831,300.57937 L364.686062,303.179524 L364.686062,305.771322 C364.687887,306.838275 365.376666,307.703286 366.228072,307.707875 L379.34011,307.707875 C380.192065,307.703309 380.881807,306.838954 380.885451,305.771322 L380.885451,296.159548 L378.767283,294.394116 C378.336031,294.814043 377.772578,294.956189 377.245256,294.778089 L377.245234,294.778089 Z" id="路径" fill="#FFD3A6"></path>
            <path d="M367.756742,296.531003 C368.715053,296.531 369.491919,297.504528 369.491924,298.705441 L369.491924,298.705441 L369.491924,298.985079 L371.663393,300.508439 C371.973231,300.189855 372.361653,300.015804 372.762439,300.015957 C372.888897,300.017064 373.014959,300.033838 373.138783,300.066036 L376.299389,293.935006 C375.866109,293.172043 375.873057,292.146578 376.316611,291.392944 C376.760165,290.63931 377.539912,290.328117 378.249555,290.621517 C378.959197,290.914916 379.438083,291.746487 379.436683,292.682929 C379.436547,292.855697 379.420905,293.027898 379.390053,293.196284 L380.885429,294.448361 L380.885429,290.821518 C380.881784,289.753886 380.192043,288.889531 379.340089,288.884959 L366.228051,288.884959 C365.376644,288.889551 364.687867,289.754565 364.686045,290.821518 L364.686045,301.209595 L366.131474,299.473377 C365.935392,298.807384 366.011613,298.063318 366.335571,297.480984 C366.65953,296.898649 367.190271,296.551665 367.756742,296.551862 L367.756742,296.531003 Z" id="路径" fill="#FFD3A6"></path>
            <path d="M196.125888,114.449478 C189.582791,114.449478 183.683969,109.510209 181.180034,101.93484 C178.676098,94.3594702 180.060156,85.6398418 184.686823,79.8419039 C189.31349,74.0439659 196.271624,72.3095232 202.316657,75.4473437 C208.36169,78.5851642 212.303156,85.9773078 212.303156,94.1768292 C212.293085,105.36787 205.056172,114.436855 196.125888,114.449478 L196.125888,114.449478 Z M196.125888,75.302299 C190.034039,75.302299 184.542031,79.900929 182.210781,86.95386 C179.879531,94.0067911 181.168137,102.125067 185.475724,107.523147 C189.783312,112.921227 196.261576,114.536051 201.88971,111.614631 C207.517844,108.69321 211.187483,101.810867 211.187483,94.1768292 C211.178064,83.7576067 204.440273,75.3141014 196.125888,75.302299 L196.125888,75.302299 Z" id="形状" fill="#3F3D56"></path>
            <path d="M187.53122,101.525512 C187.055791,101.525512 186.627162,101.166642 186.444933,100.616359 C186.262705,100.066076 186.362703,99.4324318 186.698363,99.0104983 L192.675716,91.4989183 C192.863612,91.2614853 193.119584,91.1282874 193.386422,91.129095 L193.387109,91.129095 C193.653664,91.1281333 193.909445,91.2608624 194.097425,91.4976904 L196.86962,94.9716837 C196.982405,95.1138895 197.135928,95.193588 197.295919,95.1929887 L197.296212,95.1929887 C197.456206,95.1935661 197.609712,95.113768 197.722401,94.9714392 L201.636293,90.0584718 C201.673971,90.0112336 201.695113,89.9471577 201.695058,89.8803678 C201.695003,89.8135779 201.673756,89.7495568 201.636,89.7024159 L200.369692,88.1181183 C200.197029,87.902223 200.145224,87.5771993 200.238457,87.2947494 C200.33169,87.0122994 200.551578,86.8281568 200.795491,86.8281568 L205.293345,86.8281568 C205.626103,86.8286138 205.895767,87.1665441 205.896132,87.5835429 L205.896132,93.2164997 C205.896132,93.5220545 205.749373,93.7975693 205.524118,93.91454 C205.298864,94.0315108 205.039561,93.9668951 204.867152,93.7508306 L203.598884,92.1613661 C203.561213,92.1141357 203.510109,92.0876 203.456821,92.0876 C203.403533,92.0876 203.352429,92.1141357 203.314757,92.1613661 L198.014761,98.7985595 C197.826807,99.0353623 197.571065,99.1680898 197.304543,99.1671548 L197.304445,99.1671548 C197.037867,99.1680234 196.78209,99.0352085 196.594129,98.798315 L193.82056,95.322594 C193.58198,95.0373579 193.20666,95.0373579 192.968081,95.322594 L188.362897,101.093491 C188.142876,101.370979 187.843374,101.526555 187.53122,101.525512 Z" id="路径" fill="#FFD3A6"></path>
            <path d="M196.125888,167.605624 C189.582791,167.605624 183.683969,162.666355 181.180034,155.090986 C178.676098,147.515616 180.060156,138.795988 184.686823,132.99805 C189.31349,127.200112 196.271624,125.465669 202.316657,128.60349 C208.36169,131.74131 212.303156,139.133454 212.303156,147.332975 C212.293085,158.524016 205.056172,167.593001 196.125888,167.605624 L196.125888,167.605624 Z" id="路径" fill="#E6E6E6"></path>
            <path d="M263.146036,112.854793 C256.60294,112.854793 250.704118,107.915525 248.200182,100.340155 C245.696246,92.7647859 247.080304,84.0451574 251.706971,78.2472195 C256.333638,72.4492816 263.291772,70.7148388 269.336805,73.8526593 C275.381838,76.9904798 279.323304,84.3826234 279.323304,92.5821449 C279.313234,103.773186 272.076321,112.842171 263.146036,112.854793 L263.146036,112.854793 Z" id="路径" fill="#E6E6E6"></path>
            <path d="M127.380759,127.059965 C124.603888,127.064415 121.874324,127.961197 119.452895,129.664617 C126.672418,130.464138 132.414465,137.592356 133.12045,146.631612 C133.826434,155.670869 129.296245,164.058991 122.337429,166.597507 C122.969262,166.859951 123.613901,167.071239 124.267359,167.230065 C125.292843,167.482902 126.335617,167.609308 127.380759,167.607493 C136.315707,167.607493 143.558914,158.530605 143.558914,147.33372 C143.558914,136.136834 136.315707,127.059965 127.380759,127.059965 L127.380759,127.059965 Z" id="路径" fill="#E6E6E6"></path>
            <path d="M121.243016,128.580258 C120.217914,128.323002 119.174861,128.19479 118.129408,128.19749 C109.489545,128.186328 102.364039,136.676289 101.937359,147.490182 C101.510678,158.304075 107.933089,167.633503 116.531691,168.690442 C125.130293,169.747381 132.876864,162.159603 134.135053,151.447919 C135.393243,140.736235 129.719948,130.673047 121.243016,128.580258 L121.243016,128.580258 Z M122.337429,166.597534 C116.67934,168.660006 110.581099,166.398655 106.729708,160.809874 C102.878317,155.221093 101.981046,147.331208 104.43325,140.616652 C106.885455,133.902097 112.23681,129.595933 118.129408,129.59554 C118.574918,129.59554 119.016081,129.622118 119.452895,129.664643 C126.672418,130.464165 132.414465,137.592382 133.12045,146.631639 C133.826434,155.670895 129.296245,164.059018 122.337429,166.597534 L122.337429,166.597534 Z" id="形状" fill="#3F3D56"></path>
            <path d="M127.548814,144.90274 C126.435399,138.787259 121.580546,134.956666 116.698621,136.341682 C116.469565,136.40715 116.23245,136.487713 116.023504,136.568303 L118.185506,148.473217 L127.685442,145.76893 C127.64526,145.491934 127.601056,145.189794 127.548814,144.90274 Z" id="路径" fill="#FFD3A6"></path>
            <path d="M126.62856,147.858823 L117.124607,150.563104 L114.96663,138.658195 C110.353722,140.446782 107.667782,146.450797 108.856932,152.315504 C110.046082,158.180211 114.693354,161.849183 119.428062,160.661299 C124.16277,159.473415 127.324715,153.845201 126.620526,147.858823 L126.62856,147.858823 Z" id="路径" fill="#FFD3A6"></path>
            <path d="M293.631597,243.16328 C284.697136,243.16328 277.454324,234.086906 277.454324,222.890631 C277.454324,211.694357 284.697136,202.617983 293.631597,202.617983 C302.566058,202.617983 309.80887,211.694357 309.80887,222.890631 C309.798776,234.081662 302.561874,243.150631 293.631597,243.16328 L293.631597,243.16328 Z M293.631597,204.016101 C287.539748,204.016101 282.047743,208.614735 279.716493,215.667666 C277.385244,222.720597 278.673852,230.838872 282.98144,236.236951 C287.289028,241.635029 293.767291,243.249853 299.395424,240.328432 C305.023558,237.407011 308.693196,230.524669 308.693196,222.890631 C308.683757,212.471418 301.945975,204.027927 293.631597,204.016101 L293.631597,204.016101 Z" id="形状" fill="#3F3D56"></path>
            <path d="M300.611881,231.013508 C298.958432,231.01488 297.617154,229.336288 297.616047,227.264257 C297.614942,225.192227 298.954425,223.511387 300.607875,223.509986 C302.261324,223.508588 303.602618,225.187159 303.603746,227.259189 C303.604109,229.330861 302.265044,231.011178 300.611881,231.013508 Z M293.63155,231.013507 C291.98003,231.011128 290.641682,229.333969 290.639784,227.264356 L290.639784,218.516912 C290.641749,216.448022 291.980655,214.772161 293.631599,214.772161 C295.282543,214.772161 296.621449,216.448022 296.623415,218.516912 L296.623415,227.264356 C296.621505,229.334011 295.283104,231.011181 293.63155,231.013507 L293.63155,231.013507 Z M286.653281,231.013507 C285.000584,231.01112 283.661295,229.332738 283.659432,227.26165 L283.659432,223.766756 C283.659432,221.694698 284.999835,220.014963 286.653306,220.014963 C288.306778,220.014963 289.647181,221.694698 289.647181,223.766756 L289.647181,227.26165 C289.645309,229.332758 288.305994,231.011143 286.653281,231.013507 L286.653281,231.013507 Z" id="形状" fill="#FFD3A6"></path>
            <polygon id="路径" fill="#A0616A" points="88.4962884 313.842924 93.4273595 313.141794 93.6156946 288.974352 86.33807 290.009302"></polygon>
            <path d="M87.4719059,311.510429 L103.118471,311.068082 L102.947564,318.60005 L93.3462593,318.871491 C90.0075495,318.96588 87.3775081,315.670221 87.4718974,311.51043 L87.4718974,311.51043 L87.4719059,311.510429 Z" id="路径" fill="#2F2E41" transform="translate(95.293953, 314.970776) rotate(173.525940) translate(-95.293953, -314.970776) "></path>
            <polygon id="路径" fill="#A0616A" points="37.7862142 313.45701 42.7486744 313.456478 45.1092259 289.469767 37.7853659 289.470299"></polygon>
            <path d="M36.7226603,311.679887 L52.3190378,311.679706 L52.3190378,319.231069 L42.7484654,319.231179 C39.4204666,319.231179 36.7226603,315.850389 36.7226603,311.679887 L36.7226603,311.679887 L36.7226603,311.679887 Z" id="路径" fill="#2F2E41" transform="translate(44.520849, 315.455443) rotate(179.997380) translate(-44.520849, -315.455443) "></path>
            <path d="M73.3907826,206.189922 L76.2242248,217.739599 L91.6057731,259.451104 L95.653544,299.016558 L86.3436819,299.523806 L80.6767762,263.001855 L61.2474571,236.624888 L44.2468208,305.610807 L36.5560467,304.596306 C36.5560467,304.596306 43.0324878,215.320415 51.9375949,206.189927 C51.9375737,206.189922 66.5095652,197.566687 73.3907826,206.189922 Z" id="路径" fill="#2F2E41"></path>
            <ellipse id="椭圆形" fill="#A0616A" cx="60.8219639" cy="143.896112" rx="9.94175186" ry="12.4585674"></ellipse>
            <path d="M74.4027232,208.472548 C74.4027232,208.472548 75.6170562,156.733114 58.616403,160.283843 C41.6157497,163.834573 48.6993552,213.798692 48.6993552,213.798692 C48.6993552,213.798692 52.3423542,222.929185 61.2474571,212.784197 C70.1525599,202.639208 74.4027232,208.472548 74.4027232,208.472548 Z" id="路径" fill="#FFD3A6"></path>
            <path d="M109.598337,165.406985 C108.952269,166.681059 107.889051,167.531081 106.694775,167.728326 C105.5005,167.92557 104.297847,167.449776 103.410426,166.42897 L90.6762927,175.026408 L91.3430244,165.644066 L103.333357,158.918219 C104.833556,157.124299 107.167354,157.020007 108.765708,158.675462 C110.364062,160.330916 110.72176,163.222855 109.598316,165.40699 L109.598337,165.406985 Z" id="路径" fill="#A0616A"></path>
            <path d="M60.7269735,166.600866 L81.3975992,170.979439 L99.9215864,160.02106 L102.733951,167.557193 L82.4555207,183.743282 C82.4555207,183.743282 60.9869311,185.570047 56.0234019,178.475184 C54.1620785,175.814607 53.9493022,173.393026 54.4104136,171.405337 C55.2462298,168.035272 57.9555264,165.97454 60.7269735,166.600866 L60.7269735,166.600866 Z" id="路径" fill="#FFD3A6"></path>
            <path d="M59.6395589,156.986839 C59.7358315,156.8787 59.7857965,156.72002 59.7743909,156.558635 C59.7629853,156.397251 59.6915436,156.252045 59.5816034,156.166793 C57.7832952,154.771166 56.7367235,152.25628 56.8528043,149.609555 C56.968885,146.96283 58.2290856,144.606823 60.1386129,143.466573 C63.0615355,141.720154 67.0222778,143.078809 69.1830159,139.72287 C70.0722015,138.269977 70.4124649,136.403887 70.1150753,134.611221 C69.6488399,131.44152 67.747368,129.087628 65.6178961,127.474429 C60.2813555,123.431686 53.5751875,123.540987 48.3243533,127.756287 C43.0735191,131.971588 40.1907475,139.560162 40.8904008,147.325337 C41.1652683,150.375995 41.9164242,153.79671 40.4689077,156.273542 C39.1949353,158.453422 36.7902312,158.862166 34.6778664,159.403817 C30.1471389,160.565576 25.77614,163.245672 22.7015016,167.574692 C19.6268632,171.903713 17.9866299,177.977483 18.9136416,183.655203 C19.8406532,189.332922 23.5597031,194.3227 28.1306723,195.202764 C31.8512492,195.919102 35.6929968,193.939051 38.4251835,190.69423 C41.1573701,187.449409 42.884369,183.067561 43.973684,178.552223 C45.2666045,173.192914 45.7766023,167.417914 48.1108462,162.64395 C50.3950456,157.972327 55.3174804,154.623506 59.1754062,157.056473 C59.3267646,157.155528 59.5111363,157.127867 59.6395589,156.986839 L59.6395589,156.986839 Z" id="路径" fill="#2F2E41"></path>
            <path d="M347.744814,249.204524 C348.833932,248.525336 349.627048,247.276498 349.910751,245.794043 C350.194454,244.311589 349.939602,242.747801 349.21477,241.52346 L358.793536,175.091386 L349.854897,174.943771 L343.202969,240.63647 C341.607344,242.336058 341.278287,245.262599 342.437028,247.448536 C343.59577,249.634472 345.87605,250.388865 347.744802,249.204524 L347.744814,249.204524 Z" id="路径" fill="#FFB8B8"></path>
            <polygon id="路径" fill="#FFB8B8" points="320.002545 246.055017 316.60912 266.254352 317.033298 311.437076 323.39597 311.437076 326.365217 267.317475 331.031177 248.712824"></polygon>
            <polygon id="路径" fill="#FFB8B8" points="341.030753 247.570498 337.637328 267.769834 338.061506 312.952558 344.424178 312.952558 347.393425 268.832957 352.059385 250.228306"></polygon>
            <path d="M314.821064,310.918724 L324.850301,310.912354 L324.846291,318.82563 L308.502366,318.836011 L308.502366,318.836011 C308.503428,316.73728 309.169742,314.724085 310.354728,313.239305 C311.539714,311.754526 313.146303,310.919787 314.821064,310.918724 Z" id="路径" fill="#2F2E41" transform="translate(316.676334, 314.874182) rotate(-0.143750) translate(-316.676334, -314.874182) "></path>
            <path d="M336.005677,311.773178 L346.034915,311.766808 L346.030904,319.680085 L329.686984,319.690465 L329.686984,319.690465 C329.688045,317.591736 330.354359,315.578541 331.539344,314.093762 C332.724329,312.608982 334.330917,311.774244 336.005677,311.773178 Z" id="路径" fill="#2F2E41" transform="translate(337.860949, 315.728637) rotate(-0.143750) translate(-337.860949, -315.728637) "></path>
            <ellipse id="椭圆形" fill="#FFB8B8" cx="335.485001" cy="133.939306" rx="10.4182524" ry="13.055697"></ellipse>
            <path d="M358.508505,166.23115 C355.338821,159.998352 345.386702,145.21651 330.577866,153.701278 C328.188141,155.086228 326.738422,158.188318 326.943656,161.47772 C327.660318,173.331009 328.56442,203.531216 320.850855,221.602998 C320.850855,221.602998 343.332297,230.107981 355.633463,222.134559 C355.633463,222.134559 351.391682,186.519942 355.633463,179.609643 C357.047905,177.401355 358.193319,174.942517 359.032361,172.313297 C359.629662,170.295325 359.435663,168.042925 358.508505,166.23115 L358.508505,166.23115 Z" id="路径" fill="#3F3D56"></path>
            <path d="M354.360929,165.789045 L358.523635,167.962599 C359.089399,168.258023 359.467365,168.937423 359.492882,169.704835 L359.875232,181.204332 L350.543313,180.141209 L354.360929,165.789045 Z" id="路径" fill="#3F3D56"></path>
            <path d="M322.547567,220.539875 C322.547567,220.539875 313.215648,242.333895 314.912361,262.533231 L328.061883,265.191038 L337.393803,237.01828 L335.272912,265.722599 L348.846613,266.254161 C348.846613,266.254161 357.754354,224.792367 354.785107,221.071437 L322.547567,220.539875 Z" id="路径" fill="#2F2E41"></path>
            <path d="M309.293832,222.485151 C310.496372,222.25467 311.555682,221.368534 312.186725,220.065183 C312.817767,218.761833 312.95572,217.175151 312.563461,215.732082 L331.493955,171.011668 L323.017281,167.454129 L307.054095,212.589268 C305.120802,213.597891 304.095045,216.259163 304.666457,218.783866 C305.23787,221.30857 307.225837,222.898685 309.293815,222.485151 L309.293832,222.485151 Z" id="路径" fill="#FFB8B8"></path>
            <path d="M334.078414,158.905589 L330.572157,156.940019 C330.572157,156.940019 327.599253,154.630384 324.964047,159.712404 C322.32884,164.794424 319.482189,175.931407 319.482189,175.931407 L330.92249,179.965379 L334.078414,158.905589 Z" id="路径" fill="#3F3D56"></path>
            <path d="M337.153896,140.224707 C337.528021,138.597177 337.419919,136.394807 336.160789,135.779211 C335.504734,135.458466 334.772738,135.711447 334.072187,135.801355 C332.701358,135.970061 331.329227,135.496763 330.220382,134.472724 C328.917943,133.259402 328.113459,131.404757 327.349544,129.610424 L326.194083,126.896457 C325.93697,126.33065 325.717697,125.739126 325.538515,125.127952 C324.895606,122.732035 325.593688,119.958209 327.022766,118.174294 C328.516237,116.433208 330.481503,115.467629 332.521298,115.472724 C334.545087,115.490953 336.544515,116.027737 338.396641,117.050089 C341.688717,118.731692 344.670432,121.241931 347.157315,124.425504 C348.782766,126.509273 350.262431,129.223867 349.922817,132.106567 C349.658456,134.350496 348.353243,136.147349 347.108454,137.794047 L342.5932,143.767144 C341.793561,144.824951 340.939071,145.925916 339.822537,146.332625 C338.706002,146.739333 337.267631,146.141884 336.963152,144.735633 C336.963139,144.73567 336.779754,141.852237 337.153896,140.224707 Z" id="路径" fill="#2F2E41"></path>
            <path d="M399.575822,319.862634 L0.424178155,319.862634 C0.189911029,319.862634 0,319.624646 0,319.331072 C0,319.037499 0.189911029,318.799511 0.424178155,318.799511 L399.575822,318.799511 C399.810089,318.799511 400,319.037499 400,319.331072 C400,319.624646 399.810089,319.862634 399.575822,319.862634 Z" id="路径" fill="#3F3D56"></path>
            <path d="M268.943992,156.97701 L257.067003,156.97701 C256.364202,156.97701 255.794469,156.263045 255.794469,155.382326 C255.794469,154.501606 256.364202,153.787641 257.067003,153.787641 L268.943992,153.787641 C269.646793,153.787641 270.216526,154.501606 270.216526,155.382326 C270.216526,156.263045 269.646793,156.97701 268.943992,156.97701 L268.943992,156.97701 Z" id="路径" fill="#FFD3A6"></path>
            <path d="M268.943992,150.066711 L257.067003,150.066711 C256.364202,150.066711 255.794469,149.352746 255.794469,148.472027 C255.794469,147.591307 256.364202,146.877342 257.067003,146.877342 L268.943992,146.877342 C269.646793,146.877342 270.216526,147.591307 270.216526,148.472027 C270.216526,149.352746 269.646793,150.066711 268.943992,150.066711 L268.943992,150.066711 Z" id="路径" fill="#FFD3A6"></path>
            <path d="M268.943992,143.156412 L257.067003,143.156412 C256.364202,143.156412 255.794469,142.442447 255.794469,141.561728 C255.794469,140.681008 256.364202,139.967043 257.067003,139.967043 L268.943992,139.967043 C269.646793,139.967043 270.216526,140.681008 270.216526,141.561728 C270.216526,142.442447 269.646793,143.156412 268.943992,143.156412 L268.943992,143.156412 Z" id="路径" fill="#FFD3A6"></path>
        </g>
    </g>
</svg>