<?xml version="1.0" encoding="UTF-8"?>
<svg width="400px" height="372px" viewBox="0 0 400 372" version="1.1" xmlns="http://www.w3.org/2000/svg" xmlns:xlink="http://www.w3.org/1999/xlink">
    <!-- Generator: Sketch 60.1 (88133) - https://sketch.com -->
    <title>undraw_online_posts_h475</title>
    <desc>Created with Sketch.</desc>
    <g id="页面-1" stroke="none" stroke-width="1" fill="none" fill-rule="evenodd">
        <g id="undraw_online_posts_h475" fill-rule="nonzero">
            <ellipse id="椭圆形" fill="#E6E6E6" cx="199.873699" cy="362.715293" rx="199.873699" ry="9.02255639"></ellipse>
            <path d="M214.536356,86.6903509 L212.531955,86.6903509 L212.531955,31.780411 C212.531963,23.3517056 209.183671,15.2682169 203.223668,9.30822972 C197.263666,3.34824249 189.180169,0 180.751464,0 L64.4174085,0 C55.9887053,0 47.9052113,3.34824649 41.945212,9.30823357 C35.9852127,15.2682206 32.6369323,23.3517078 32.6369323,31.780411 L32.6369323,333.020602 C32.6369323,341.449306 35.9852108,349.532794 41.9452102,355.492782 C47.9052096,361.45277 55.9887045,364.801018 64.4174085,364.801018 L180.751464,364.801018 C189.180167,364.801018 197.263661,361.452769 203.223661,355.492781 C209.18366,349.532793 212.531949,341.449305 212.53194,333.020602 L212.53194,125.77619 L214.536356,125.77619 L214.536356,86.6903509 Z" id="路径" fill="#3F3D56"></path>
            <path d="M182.03383,8.26814035 L166.848366,8.26814035 C168.266483,11.7449565 167.860833,15.6995633 165.7664,18.8160544 C163.671967,21.9325455 160.163587,23.8019675 156.408702,23.8022556 L89.7623559,23.8022556 C86.0074652,23.8019686 82.4990804,21.9325442 80.4046451,18.8160485 C78.3102099,15.6995529 77.9045611,11.7449403 79.3226817,8.26814035 L65.1394436,8.26814035 C58.844998,8.26814035 52.8083528,10.7685813 48.3575015,15.2194203 C43.9066502,19.6702594 41.4061754,25.7068977 41.4061754,32.0013434 L41.4061754,332.799619 C41.4061754,339.09407 43.9066385,345.130717 48.3574906,349.581563 C52.8083426,354.03241 58.8449923,356.532857 65.1394436,356.532857 L182.03383,356.532857 C188.32828,356.532857 194.364928,354.032408 198.815779,349.581562 C203.26663,345.130715 205.767093,339.094069 205.767093,332.799619 L205.767093,32.0013634 C205.767093,25.7069186 203.266619,19.6702811 198.815768,15.2194422 C194.364918,10.7686032 188.328274,8.26814035 182.03383,8.26814035 L182.03383,8.26814035 Z" id="路径" fill="#FFFFFF"></path>
            <rect id="矩形" fill="#FFD3A6" x="98.4048722" y="89.0748421" width="41.4334987" height="3.84769925"></rect>
            <rect id="矩形" fill="#E6E6E6" x="98.4048722" y="102.385258" width="72.2151078" height="3.84769925"></rect>
            <rect id="矩形" fill="#E6E6E6" x="98.4048722" y="115.695669" width="72.144396" height="3.84769925"></rect>
            <rect id="矩形" fill="#FFD3A6" x="59.0366466" y="89.1319749" width="30.781609" height="30.781609"></rect>
            <rect id="矩形" fill="#FFD3A6" x="98.4048722" y="169.876566" width="41.4334987" height="3.84769925"></rect>
            <rect id="矩形" fill="#E6E6E6" x="98.4048722" y="183.186982" width="72.2151078" height="3.84769925"></rect>
            <rect id="矩形" fill="#E6E6E6" x="98.4048722" y="196.497393" width="72.144396" height="3.84769925"></rect>
            <rect id="矩形" fill="#FFD3A6" x="59.0366466" y="169.933699" width="30.781609" height="30.781609"></rect>
            <rect id="矩形" fill="#FFD3A6" x="98.4048722" y="250.678291" width="41.4334987" height="3.84769925"></rect>
            <rect id="矩形" fill="#E6E6E6" x="98.4048722" y="263.988707" width="72.2151078" height="3.84769925"></rect>
            <rect id="矩形" fill="#E6E6E6" x="98.4048722" y="277.299118" width="72.144396" height="3.84769925"></rect>
            <rect id="矩形" fill="#FFD3A6" x="59.0366466" y="250.735424" width="30.781609" height="30.781609"></rect>
            <circle id="椭圆形" fill="#2F2E41" cx="330.319519" cy="150.497068" r="15.2628922"></circle>
            <path d="M338.355519,160.658246 C338.355519,160.658246 338.125729,170.079579 339.044887,170.309373 C339.964045,170.539168 326.406531,174.215789 326.406531,174.215789 L325.027799,161.347619 L338.355519,160.658246 Z" id="路径" fill="#FFB8B8"></path>
            <path d="M231.274015,241.084271 C231.274015,241.084271 221.163313,241.084271 220.933524,239.935328 C220.703734,238.786386 218.635639,249.356662 218.635639,249.356662 L222.771835,250.735393 C222.771835,250.735393 230.584647,247.288561 231.274015,247.288561 C231.963383,247.288561 231.274015,241.084271 231.274015,241.084271 Z" id="路径" fill="#FFB8B8"></path>
            <path d="M220.24416,245.220466 C220.24416,245.220466 222.082466,239.01617 224.380356,238.786381 C224.380356,238.786381 216.567539,233.731033 216.337749,232.122511 C216.10796,230.51399 213.350496,226.377794 212.201554,227.756526 C211.052612,229.135258 211.052607,250.965183 213.120707,253.263068 C215.188807,255.560952 224.380356,250.033218 224.380356,250.033218 C224.380356,250.033218 218.635639,247.518351 220.24416,245.220466 Z" id="路径" fill="#2F2E41"></path>
            <polygon id="路径" fill="#FFB8B8" points="345.019549 333.229574 346.857644 343.110276 338.355388 344.489223 338.355388 333.229574"></polygon>
            <path d="M345.019388,341.961484 C345.019388,341.961484 346.39812,337.595499 347.317278,338.284862 C348.236436,338.974226 349.615163,343.340216 349.385373,344.489158 C349.155584,345.6381 347.547063,354.599855 348.236431,356.208376 C348.925799,357.816897 344.789599,366.089288 339.504461,365.399925 C334.219323,364.710561 334.678897,360.114782 334.678897,360.114782 L336.517203,352.991338 L337.206571,341.731689 C337.206571,341.731689 343.181083,340.812536 345.019388,341.961484 Z" id="路径" fill="#2F2E41"></path>
            <circle id="椭圆形" fill="#2F2E41" cx="335.658697" cy="134.432997" r="6.3156792"></circle>
            <path d="M344.079604,131.012005 C344.079412,127.778676 341.637512,125.067573 338.421805,124.730471 C338.640366,124.707777 338.859953,124.696326 339.079689,124.696326 C342.567743,124.696326 345.395368,127.523952 345.395368,131.012005 C345.395368,134.500058 342.567743,137.327684 339.079689,137.327684 C338.859953,137.327684 338.640366,137.31623 338.421805,137.293539 C341.637512,136.956437 344.079412,134.245334 344.079604,131.012005 L344.079604,131.012005 Z" id="路径" fill="#2F2E41"></path>
            <circle id="椭圆形" fill="#FFB8B8" cx="330.312917" cy="157.441208" r="9.65112281"></circle>
            <path d="M349.385373,224.539489 C349.385373,224.539489 348.925794,236.028917 347.087489,242.003424 C345.249183,247.97793 338.621629,290.526842 340.000361,293.743885 C341.379093,296.960927 348.466221,332.540145 346.857699,334.608246 C345.249178,336.676346 337.666155,335.986977 337.666155,335.986977 L327.361985,292.824727 C327.361985,292.824727 329.393764,245.220466 312.389404,244.071524 C295.385043,242.922581 267.580617,242.233213 267.580617,242.233213 C267.580617,242.233213 249.657103,247.518351 241.614501,247.288561 C233.5719,247.058772 228.976125,249.356662 228.976125,249.356662 L227.597393,239.935328 L263.214637,232.122511 C263.214637,232.122511 295.844622,220.862862 313.768135,223.85012 C331.691649,226.837378 349.385373,224.539489 349.385373,224.539489 Z" id="路径" fill="#2F2E41"></path>
            <path d="M336.517208,167.322115 C336.517208,167.322115 339.274672,165.713594 339.96404,167.322115 C340.653409,168.930637 345.478967,170.309368 347.317278,168.930637 C349.155589,167.551905 353.751363,169.390216 353.751363,169.390216 L358.806712,184.326476 C358.806712,184.326476 356.279038,197.194647 353.981148,204.318085 C351.683258,211.441524 350.764105,226.14801 351.683258,227.526742 C352.602411,228.905474 333.30017,234.420401 323.878837,230.973569 C314.457504,227.526737 312.389404,223.620331 312.389404,223.620331 C312.389404,223.620331 322.72989,208.91386 319.283063,202.020201 C315.836236,195.126541 318.593694,187.313729 318.593694,187.313729 L317.214962,179.500912 L325.027779,175.134932 C325.027779,175.134932 325.487353,170.998737 327.325664,170.998737 C329.163975,170.998737 336.517208,167.322115 336.517208,167.322115 Z" id="路径" fill="#D0CDE1"></path>
            <path d="M320.661794,179.730702 L317.214962,179.730702 C315.271174,181.549625 314.402591,184.242236 314.917078,186.85415 C315.836231,191.220135 319.981559,205.694692 319.981559,205.694692 L323.419258,196.735063 L320.661794,179.730702 Z" id="路径" fill="#D0CDE1"></path>
            <path d="M310.763925,216.633494 C310.763925,216.633494 303.887233,224.07991 308.942596,227.986316 C313.99796,231.892722 315.243624,219.024561 315.243624,219.024561 L310.763925,216.633494 Z" id="路径" fill="#FFB8B8"></path>
            <path d="M320.661794,201.101048 L319.053273,207.535133 L316.29581,212.590481 C316.29581,212.590481 306.874476,218.794777 306.874476,221.092662 C306.874476,221.092662 311.010672,215.807524 316.29581,221.092662 L321.006476,209.718125 L320.661794,201.101048 Z" id="路径" fill="#D0CDE1"></path>
            <ellipse id="椭圆形" fill="#2F2E41" cx="328.54402" cy="147.260937" rx="10.5261303" ry="6.3156792"></ellipse>
            <path d="M349.385373,147.79008 C349.385373,147.79008 342.032135,143.653885 339.044887,146.641138 C336.057639,149.628391 348.006642,154.224165 348.006642,154.224165 L349.385373,147.79008 Z" id="路径" fill="#FFB8B8"></path>
            <path d="M352.142837,170.539158 L353.751358,169.390216 C353.751358,169.390216 355.589669,166.632752 357.198185,167.551905 C358.806702,168.471058 368.22804,164.105078 368.22804,164.105078 C368.22804,164.105078 364.781213,165.713599 364.781213,162.95613 C364.781213,160.198662 364.321634,160.658246 362.023749,160.658246 C359.725865,160.658246 359.725865,161.807188 358.806707,160.198667 C357.887549,158.590145 358.347133,157.670992 356.738612,158.590145 C355.13009,159.509298 353.291779,158.81993 352.832206,158.130566 C352.372632,157.441203 344.100236,156.292256 344.100236,156.292256 C344.100236,156.292256 347.317278,146.870922 348.006642,146.181559 C348.696005,145.492195 366.389734,153.305013 366.389734,153.305013 C366.389734,153.305013 388.679233,159.509308 382.934516,166.632757 C377.189799,173.756206 356.508822,184.556271 356.508822,184.556271 L352.142837,170.539158 Z" id="路径" fill="#D0CDE1"></path>
        </g>
    </g>
</svg>